<svg width="88" height="100" viewBox="0 0 88 100" fill="none" xmlns="http://www.w3.org/2000/svg">
<g id="asset-animal">
<g id="animal">
<g id="type=cat, size=md, type-2=colorX">
<path id="Vector" d="M33 0H11V5.53571H33V0Z" fill="#A6A6A6" style="fill:#A6A6A6;fill:color(display-p3 0.6510 0.6510 0.6510);fill-opacity:1;"/>
<path id="Vector_2" d="M77 0H55V5.53571H77V0Z" fill="#A6A6A6" style="fill:#A6A6A6;fill:color(display-p3 0.6510 0.6510 0.6510);fill-opacity:1;"/>
<path id="Vector_3" d="M16.5 5.53571H11V11.0714H16.5V5.53571Z" fill="#A6A6A6" style="fill:#A6A6A6;fill:color(display-p3 0.6510 0.6510 0.6510);fill-opacity:1;"/>
<path id="Vector_4" d="M38.5 5.53571H27.5V11.0714H38.5V5.53571Z" fill="#A6A6A6" style="fill:#A6A6A6;fill:color(display-p3 0.6510 0.6510 0.6510);fill-opacity:1;"/>
<path id="Vector_5" d="M60.5 5.53571H49.5V11.0714H60.5V5.53571Z" fill="#A6A6A6" style="fill:#A6A6A6;fill:color(display-p3 0.6510 0.6510 0.6510);fill-opacity:1;"/>
<path id="Vector_6" d="M77 5.53571H71.5V11.0714H77V5.53571Z" fill="#A6A6A6" style="fill:#A6A6A6;fill:color(display-p3 0.6510 0.6510 0.6510);fill-opacity:1;"/>
<path id="Vector_7" d="M16.5 11.0715H11V16.6072H16.5V11.0715Z" fill="#A6A6A6" style="fill:#A6A6A6;fill:color(display-p3 0.6510 0.6510 0.6510);fill-opacity:1;"/>
<path id="Vector_8" d="M55 11.0715H33V16.6072H55V11.0715Z" fill="#A6A6A6" style="fill:#A6A6A6;fill:color(display-p3 0.6510 0.6510 0.6510);fill-opacity:1;"/>
<path id="Vector_9" d="M77 11.0715H71.5V16.6072H77V11.0715Z" fill="#A6A6A6" style="fill:#A6A6A6;fill:color(display-p3 0.6510 0.6510 0.6510);fill-opacity:1;"/>
<path id="Vector_10" d="M16.5 16.6071H11V22.1428H16.5V16.6071Z" fill="#A6A6A6" style="fill:#A6A6A6;fill:color(display-p3 0.6510 0.6510 0.6510);fill-opacity:1;"/>
<path id="Vector_11" d="M77 16.6071H71.5V22.1428H77V16.6071Z" fill="#A6A6A6" style="fill:#A6A6A6;fill:color(display-p3 0.6510 0.6510 0.6510);fill-opacity:1;"/>
<path id="Vector_12" d="M16.5 22.1429H5.5V27.6786H16.5V22.1429Z" fill="#A6A6A6" style="fill:#A6A6A6;fill:color(display-p3 0.6510 0.6510 0.6510);fill-opacity:1;"/>
<path id="Vector_13" d="M82.5 22.1429H71.5V27.6786H82.5V22.1429Z" fill="#A6A6A6" style="fill:#A6A6A6;fill:color(display-p3 0.6510 0.6510 0.6510);fill-opacity:1;"/>
<path id="Vector_14" d="M11 27.6785H5.5V33.2142H11V27.6785Z" fill="#A6A6A6" style="fill:#A6A6A6;fill:color(display-p3 0.6510 0.6510 0.6510);fill-opacity:1;"/>
<path id="Vector_15" d="M82.5 27.6785H77V33.2142H82.5V27.6785Z" fill="#A6A6A6" style="fill:#A6A6A6;fill:color(display-p3 0.6510 0.6510 0.6510);fill-opacity:1;"/>
<path id="Vector_16" d="M11 33.2143H0V38.75H11V33.2143Z" fill="#A6A6A6" style="fill:#A6A6A6;fill:color(display-p3 0.6510 0.6510 0.6510);fill-opacity:1;"/>
<path id="Vector_17" d="M88 33.2143H77V38.75H88V33.2143Z" fill="#A6A6A6" style="fill:#A6A6A6;fill:color(display-p3 0.6510 0.6510 0.6510);fill-opacity:1;"/>
<path id="Vector_18" d="M5.5 38.75H0V55.3571H5.5V38.75Z" fill="#A6A6A6" style="fill:#A6A6A6;fill:color(display-p3 0.6510 0.6510 0.6510);fill-opacity:1;"/>
<path id="Vector_19" d="M88 38.75H82.5V44.2857H88V38.75Z" fill="#A6A6A6" style="fill:#A6A6A6;fill:color(display-p3 0.6510 0.6510 0.6510);fill-opacity:1;"/>
<path id="Vector_20" d="M38.5 44.2857H33V49.8214H38.5V44.2857Z" fill="#A6A6A6" style="fill:#A6A6A6;fill:color(display-p3 0.6510 0.6510 0.6510);fill-opacity:1;"/>
<path id="Vector_21" d="M71.5 44.2857H66V49.8214H71.5V44.2857Z" fill="#A6A6A6" style="fill:#A6A6A6;fill:color(display-p3 0.6510 0.6510 0.6510);fill-opacity:1;"/>
<path id="Vector_22" d="M88 44.2857H82.5V49.8214H88V44.2857Z" fill="#A6A6A6" style="fill:#A6A6A6;fill:color(display-p3 0.6510 0.6510 0.6510);fill-opacity:1;"/>
<path id="Vector_23" d="M60.5 49.8215H49.5V55.3572H60.5V49.8215Z" fill="#A6A6A6" style="fill:#A6A6A6;fill:color(display-p3 0.6510 0.6510 0.6510);fill-opacity:1;"/>
<path id="Vector_24" d="M88 49.8215H82.5V55.3572H88V49.8215Z" fill="#A6A6A6" style="fill:#A6A6A6;fill:color(display-p3 0.6510 0.6510 0.6510);fill-opacity:1;"/>
<path id="Vector_25" d="M11 55.3571H0V60.8928H11V55.3571Z" fill="#A6A6A6" style="fill:#A6A6A6;fill:color(display-p3 0.6510 0.6510 0.6510);fill-opacity:1;"/>
<path id="Vector_26" d="M11 60.8929H5.5V66.4286H11V60.8929Z" fill="#A6A6A6" style="fill:#A6A6A6;fill:color(display-p3 0.6510 0.6510 0.6510);fill-opacity:1;"/>
<path id="Vector_27" d="M88 55.3571H77V60.8928H88V55.3571Z" fill="#A6A6A6" style="fill:#A6A6A6;fill:color(display-p3 0.6510 0.6510 0.6510);fill-opacity:1;"/>
<path id="Vector_28" d="M16.5 60.8929H11V71.9643H16.5V60.8929Z" fill="#A6A6A6" style="fill:#A6A6A6;fill:color(display-p3 0.6510 0.6510 0.6510);fill-opacity:1;"/>
<path id="Vector_29" d="M27.5 77.5001H16.5V83.0358H27.5V77.5001Z" fill="#A6A6A6" style="fill:#A6A6A6;fill:color(display-p3 0.6510 0.6510 0.6510);fill-opacity:1;"/>
<path id="Vector_30" d="M33 83.036H22V88.5717H33V83.036Z" fill="#A6A6A6" style="fill:#A6A6A6;fill:color(display-p3 0.6510 0.6510 0.6510);fill-opacity:1;"/>
<path id="Vector_31" d="M38.5 88.5717H27.5V94.1074H38.5V88.5717Z" fill="#A6A6A6" style="fill:#A6A6A6;fill:color(display-p3 0.6510 0.6510 0.6510);fill-opacity:1;"/>
<path id="Vector_32" d="M49.5 94.1077H38.5V99.6434H49.5V94.1077Z" fill="#A6A6A6" style="fill:#A6A6A6;fill:color(display-p3 0.6510 0.6510 0.6510);fill-opacity:1;"/>
<path id="Vector_33" d="M82.5 60.8929H77V66.4286H82.5V60.8929Z" fill="#A6A6A6" style="fill:#A6A6A6;fill:color(display-p3 0.6510 0.6510 0.6510);fill-opacity:1;"/>
<path id="Vector_34" d="M82.5 66.4286H66V71.9643H82.5V66.4286Z" fill="#A6A6A6" style="fill:#A6A6A6;fill:color(display-p3 0.6510 0.6510 0.6510);fill-opacity:1;"/>
<path id="Vector_35" d="M71.5 71.9643H60.5V77.5H71.5V71.9643Z" fill="#A6A6A6" style="fill:#A6A6A6;fill:color(display-p3 0.6510 0.6510 0.6510);fill-opacity:1;"/>
<path id="Vector_36" d="M66 77.5H60.5V83.0357H66V77.5Z" fill="#A6A6A6" style="fill:#A6A6A6;fill:color(display-p3 0.6510 0.6510 0.6510);fill-opacity:1;"/>
<path id="Vector_37" d="M66 83.0357H55V88.5714H66V83.0357Z" fill="#A6A6A6" style="fill:#A6A6A6;fill:color(display-p3 0.6510 0.6510 0.6510);fill-opacity:1;"/>
<path id="Vector_38" d="M60.5 88.5714H49.5V94.1071H60.5V88.5714Z" fill="#A6A6A6" style="fill:#A6A6A6;fill:color(display-p3 0.6510 0.6510 0.6510);fill-opacity:1;"/>
<path id="Vector_39" d="M27.5 5.53571H16.5V11.0714H27.5V5.53571Z" fill="#D9D9D9" style="fill:#D9D9D9;fill:color(display-p3 0.8510 0.8510 0.8510);fill-opacity:1;"/>
<path id="Vector_40" d="M71.5 5.53571H60.5V11.0714H71.5V5.53571Z" fill="#D9D9D9" style="fill:#D9D9D9;fill:color(display-p3 0.8510 0.8510 0.8510);fill-opacity:1;"/>
<path id="Vector_41" d="M22 11.0714H16.5V16.6071H22V11.0714Z" fill="#D9D9D9" style="fill:#D9D9D9;fill:color(display-p3 0.8510 0.8510 0.8510);fill-opacity:1;"/>
<path id="Vector_42" d="M33 11.0714H27.5V16.6071H33V11.0714Z" fill="#D9D9D9" style="fill:#D9D9D9;fill:color(display-p3 0.8510 0.8510 0.8510);fill-opacity:1;"/>
<path id="Vector_43" d="M60.5 11.0714H55V16.6071H60.5V11.0714Z" fill="#D9D9D9" style="fill:#D9D9D9;fill:color(display-p3 0.8510 0.8510 0.8510);fill-opacity:1;"/>
<path id="Vector_44" d="M71.5 11.0714H66V16.6071H71.5V11.0714Z" fill="#D9D9D9" style="fill:#D9D9D9;fill:color(display-p3 0.8510 0.8510 0.8510);fill-opacity:1;"/>
<path id="Vector_45" d="M33 16.6071H16.5V22.1428H33V16.6071Z" fill="#D9D9D9" style="fill:#D9D9D9;fill:color(display-p3 0.8510 0.8510 0.8510);fill-opacity:1;"/>
<path id="Vector_46" d="M44 16.6071H38.5V22.1428H44V16.6071Z" fill="#D9D9D9" style="fill:#D9D9D9;fill:color(display-p3 0.8510 0.8510 0.8510);fill-opacity:1;"/>
<path id="Vector_47" d="M55 16.6071H49.5V22.1428H55V16.6071Z" fill="#D9D9D9" style="fill:#D9D9D9;fill:color(display-p3 0.8510 0.8510 0.8510);fill-opacity:1;"/>
<path id="Vector_48" d="M71.5 16.6071H66V22.1428H71.5V16.6071Z" fill="#D9D9D9" style="fill:#D9D9D9;fill:color(display-p3 0.8510 0.8510 0.8510);fill-opacity:1;"/>
<path id="Vector_49" d="M33 22.1429H16.5V27.6786H33V22.1429Z" fill="#D9D9D9" style="fill:#D9D9D9;fill:color(display-p3 0.8510 0.8510 0.8510);fill-opacity:1;"/>
<path id="Vector_50" d="M44 22.1429H38.5V27.6786H44V22.1429Z" fill="#D9D9D9" style="fill:#D9D9D9;fill:color(display-p3 0.8510 0.8510 0.8510);fill-opacity:1;"/>
<path id="Vector_51" d="M60.5 22.1429H49.5V27.6786H60.5V22.1429Z" fill="#D9D9D9" style="fill:#D9D9D9;fill:color(display-p3 0.8510 0.8510 0.8510);fill-opacity:1;"/>
<path id="Vector_52" d="M71.5 22.1429H66V27.6786H71.5V22.1429Z" fill="#D9D9D9" style="fill:#D9D9D9;fill:color(display-p3 0.8510 0.8510 0.8510);fill-opacity:1;"/>
<path id="Vector_53" d="M33 27.6785H11V33.2142H33V27.6785Z" fill="#D9D9D9" style="fill:#D9D9D9;fill:color(display-p3 0.8510 0.8510 0.8510);fill-opacity:1;"/>
<path id="Vector_54" d="M44 27.6785H38.5V33.2142H44V27.6785Z" fill="#D9D9D9" style="fill:#D9D9D9;fill:color(display-p3 0.8510 0.8510 0.8510);fill-opacity:1;"/>
<path id="Vector_55" d="M60.5 27.6785H49.5V33.2142H60.5V27.6785Z" fill="#D9D9D9" style="fill:#D9D9D9;fill:color(display-p3 0.8510 0.8510 0.8510);fill-opacity:1;"/>
<path id="Vector_56" d="M77 27.6785H66V33.2142H77V27.6785Z" fill="#D9D9D9" style="fill:#D9D9D9;fill:color(display-p3 0.8510 0.8510 0.8510);fill-opacity:1;"/>
<path id="Vector_57" d="M77 33.2143H11V38.75H77V33.2143Z" fill="#D9D9D9" style="fill:#D9D9D9;fill:color(display-p3 0.8510 0.8510 0.8510);fill-opacity:1;"/>
<path id="Vector_58" d="M82.5 38.75H5.5V44.2857H82.5V38.75Z" fill="#D9D9D9" style="fill:#D9D9D9;fill:color(display-p3 0.8510 0.8510 0.8510);fill-opacity:1;"/>
<path id="Vector_59" d="M33 44.2857H22V49.8214H33V44.2857Z" fill="#D9D9D9" style="fill:#D9D9D9;fill:color(display-p3 0.8510 0.8510 0.8510);fill-opacity:1;"/>
<path id="Vector_60" d="M66 44.2857H38.5V49.8214H66V44.2857Z" fill="#D9D9D9" style="fill:#D9D9D9;fill:color(display-p3 0.8510 0.8510 0.8510);fill-opacity:1;"/>
<path id="Vector_61" d="M82.5 44.2857H71.5V49.8214H82.5V44.2857Z" fill="#D9D9D9" style="fill:#D9D9D9;fill:color(display-p3 0.8510 0.8510 0.8510);fill-opacity:1;"/>
<path id="Vector_62" d="M38.5 49.8214H5.5V55.3571H38.5V49.8214Z" fill="#D9D9D9" style="fill:#D9D9D9;fill:color(display-p3 0.8510 0.8510 0.8510);fill-opacity:1;"/>
<path id="Vector_63" d="M82.5 49.8214H66V55.3571H82.5V49.8214Z" fill="#D9D9D9" style="fill:#D9D9D9;fill:color(display-p3 0.8510 0.8510 0.8510);fill-opacity:1;"/>
<path id="Vector_64" d="M33 55.3571H22V60.8928H33V55.3571Z" fill="#D9D9D9" style="fill:#D9D9D9;fill:color(display-p3 0.8510 0.8510 0.8510);fill-opacity:1;"/>
<path id="Vector_65" d="M27.5 60.8929H16.5V66.4286H27.5V60.8929Z" fill="#D9D9D9" style="fill:#D9D9D9;fill:color(display-p3 0.8510 0.8510 0.8510);fill-opacity:1;"/>
<path id="Vector_66" d="M60.5 66.4285H22V71.9642H60.5V66.4285Z" fill="#D9D9D9" style="fill:#D9D9D9;fill:color(display-p3 0.8510 0.8510 0.8510);fill-opacity:1;"/>
<path id="Vector_67" d="M27.5 11.0715H22V16.6072H27.5V11.0715Z" fill="white" style="fill:white;fill-opacity:1;"/>
<path id="Vector_68" d="M66 11.0715H60.5V16.6072H66V11.0715Z" fill="white" style="fill:white;fill-opacity:1;"/>
<path id="Vector_69" d="M38.5 16.6071H33V22.1428H38.5V16.6071Z" fill="#9B9B9B" style="fill:#9B9B9B;fill:color(display-p3 0.6097 0.6097 0.6097);fill-opacity:1;"/>
<path id="Vector_70" d="M49.5 16.6071H44V22.1428H49.5V16.6071Z" fill="#9B9B9B" style="fill:#9B9B9B;fill:color(display-p3 0.6097 0.6097 0.6097);fill-opacity:1;"/>
<path id="Vector_71" d="M66 16.6071H55V22.1428H66V16.6071Z" fill="#9B9B9B" style="fill:#9B9B9B;fill:color(display-p3 0.6097 0.6097 0.6097);fill-opacity:1;"/>
<path id="Vector_72" d="M38.5 22.1429H33V27.6786H38.5V22.1429Z" fill="#9B9B9B" style="fill:#9B9B9B;fill:color(display-p3 0.6097 0.6097 0.6097);fill-opacity:1;"/>
<path id="Vector_73" d="M49.5 22.1429H44V27.6786H49.5V22.1429Z" fill="#9B9B9B" style="fill:#9B9B9B;fill:color(display-p3 0.6097 0.6097 0.6097);fill-opacity:1;"/>
<path id="Vector_74" d="M66 22.1429H60.5V27.6786H66V22.1429Z" fill="#9B9B9B" style="fill:#9B9B9B;fill:color(display-p3 0.6097 0.6097 0.6097);fill-opacity:1;"/>
<path id="Vector_75" d="M38.5 27.6786H33V33.2143H38.5V27.6786Z" fill="#9B9B9B" style="fill:#9B9B9B;fill:color(display-p3 0.6097 0.6097 0.6097);fill-opacity:1;"/>
<path id="Vector_76" d="M49.5 27.6786H44V33.2143H49.5V27.6786Z" fill="#9B9B9B" style="fill:#9B9B9B;fill:color(display-p3 0.6097 0.6097 0.6097);fill-opacity:1;"/>
<path id="Vector_77" d="M66 27.6786H60.5V33.2143H66V27.6786Z" fill="#9B9B9B" style="fill:#9B9B9B;fill:color(display-p3 0.6097 0.6097 0.6097);fill-opacity:1;"/>
<path id="Vector_78" d="M22 44.2857H5.5V49.8214H22V44.2857Z" fill="#9B9B9B" style="fill:#9B9B9B;fill:color(display-p3 0.6097 0.6097 0.6097);fill-opacity:1;"/>
<path id="Vector_79" d="M22 55.3571H11V60.8928H22V55.3571Z" fill="#9B9B9B" style="fill:#9B9B9B;fill:color(display-p3 0.6097 0.6097 0.6097);fill-opacity:1;"/>
<path id="Vector_80" d="M22 71.9643H11V77.5H22V71.9643Z" fill="#A6A6A6" style="fill:#A6A6A6;fill:color(display-p3 0.6510 0.6510 0.6510);fill-opacity:1;"/>
<path id="Vector_81" d="M49.5 49.8215H38.5V55.3572H49.5V49.8215Z" fill="white" style="fill:white;fill-opacity:1;"/>
<path id="Vector_82" d="M66 49.8215H60.5V55.3572H66V49.8215Z" fill="white" style="fill:white;fill-opacity:1;"/>
<path id="Vector_83" d="M77 55.3571H33V60.8928H77V55.3571Z" fill="white" style="fill:white;fill-opacity:1;"/>
<path id="Vector_84" d="M77 60.8929H27.5V66.4286H77V60.8929Z" fill="white" style="fill:white;fill-opacity:1;"/>
<path id="Vector_85" d="M22 66.4286H16.5V71.9643H22V66.4286Z" fill="#E7E7E7" style="fill:#E7E7E7;fill:color(display-p3 0.9066 0.9066 0.9066);fill-opacity:1;"/>
<path id="Vector_86" d="M60.5 71.9643H22V77.5H60.5V71.9643Z" fill="#E7E7E7" style="fill:#E7E7E7;fill:color(display-p3 0.9066 0.9066 0.9066);fill-opacity:1;"/>
<path id="Vector_87" d="M60.5 77.5H27.5V83.0357H60.5V77.5Z" fill="#E7E7E7" style="fill:#E7E7E7;fill:color(display-p3 0.9066 0.9066 0.9066);fill-opacity:1;"/>
<path id="Vector_88" d="M55 83.0357H33V88.5714H55V83.0357Z" fill="#E7E7E7" style="fill:#E7E7E7;fill:color(display-p3 0.9066 0.9066 0.9066);fill-opacity:1;"/>
<path id="Vector_89" d="M49.5 88.5715H38.5V94.1072H49.5V88.5715Z" fill="#E7E7E7" style="fill:#E7E7E7;fill:color(display-p3 0.9066 0.9066 0.9066);fill-opacity:1;"/>
<path id="Vector_90" d="M66 66.4286H60.5V71.9643H66V66.4286Z" fill="#A6A6A6" style="fill:#A6A6A6;fill:color(display-p3 0.6510 0.6510 0.6510);fill-opacity:1;"/>
</g>
</g>
</g>
</svg>
