<svg width="237" height="97" viewBox="0 0 237 97" fill="none" xmlns="http://www.w3.org/2000/svg">
<path d="M228.401 50.5268H236.075V96.5717H59.5693V88.8979H51.8955V77.3862H44.2207V50.5268H51.8955V42.853H228.401V50.5268ZM213.053 42.852H67.2432V35.1782H213.053V42.852Z" fill="#AD651D" style="fill:#AD651D;fill:color(display-p3 0.6784 0.3961 0.1137);fill-opacity:1;"/>
<path d="M67.2432 77.3862H51.8955V50.5268H67.2432V42.852H213.053V50.5268H228.401V77.3862H213.053V85.06H67.2432V77.3862Z" fill="#FFFFE3" style="fill:#FFFFE3;fill:color(display-p3 1.0000 1.0000 0.8902);fill-opacity:1;"/>
<path d="M113.748 57.8109V59.4589L115.012 59.3149V62.3709L113.748 62.5149V63.8589L110.148 64.2589V58.4669L113.748 57.8109ZM105.3 60.9789L100.788 61.5069V58.5789L103.556 58.0349V58.5789L106.276 58.0349V58.5949L108.932 58.0349V64.3709L105.3 64.7549V60.9789ZM112.644 64.7389V66.1789L114.356 65.9869V69.3149L112.58 69.5229V70.9949L103.588 72.0349V70.4669L101.924 70.6749V67.3149L103.652 67.1229V65.7789L112.644 64.7389ZM106.5 69.0749L109.764 68.6909V67.5869L106.5 67.9549V69.0749ZM129.127 58.0029V62.4989L130.391 62.3549V65.4269L129.127 65.5869V71.1069L125.527 71.5069V58.5789L129.127 58.0029ZM116.327 70.3549V60.3389L118.535 60.0989V58.4189L122.119 58.0189V59.7149L124.423 59.4589V69.4749L122.215 69.7149V70.9949L118.631 71.3949V70.0989L116.327 70.3549ZM119.831 68.4349L120.983 68.3069V61.1389L119.831 61.2669V68.4349ZM131.466 71.5229V63.3789L133.722 63.1389V61.1709L131.194 61.4429V58.5629L134.09 58.0349V58.5629L136.938 58.0349V58.5789L139.722 58.0349V60.5309L137.306 60.7869V62.7389L139.562 62.4829V70.6269L136.122 71.0109V63.5069L134.97 63.6349V71.1069L131.466 71.5229ZM144.474 58.0029V71.1069L140.874 71.5069V58.5789L144.474 58.0029ZM150.208 72.0829V69.6029L154.656 69.1069V68.4349L151.072 68.8349V66.4189L162.288 65.1869V67.5869L158.784 67.9709V68.6429L163.136 68.1629V70.6589L157.632 71.2669V69.7149L155.712 69.9389V71.4749L150.208 72.0829ZM162.56 57.8109V59.8109L163.824 59.6669V62.7229L162.56 62.8669V64.6269L158.96 65.0269V58.4669L162.56 57.8109ZM155.712 57.9069V59.0909L158.128 58.8189V61.1709L155.712 61.4429V62.4189L157.968 62.1629V65.0909L154.528 65.4749V63.1709L153.328 63.3149V65.5869L149.712 65.9869V63.0589L152.128 62.7869V61.8269L149.584 62.1149V59.7629L152.128 59.4749V58.3069L155.712 57.9069ZM169.252 60.9789L164.74 61.5069V58.5789L167.508 58.0349V58.5789L170.228 58.0349V58.5949L172.884 58.0349V70.8829L169.252 71.2829V60.9789ZM178.084 58.0029V71.1069L174.484 71.5069V58.5789L178.084 58.0029Z" fill="#AD651D" style="fill:#AD651D;fill:color(display-p3 0.6784 0.3961 0.1137);fill-opacity:1;"/>
<path d="M60.5 0H33V5.5H60.5V0Z" fill="#AD651D" style="fill:#AD651D;fill:color(display-p3 0.6784 0.3961 0.1137);fill-opacity:1;"/>
<path d="M38.5 5.5H27.5V11H38.5V5.5Z" fill="#AD651D" style="fill:#AD651D;fill:color(display-p3 0.6784 0.3961 0.1137);fill-opacity:1;"/>
<path d="M66 5.5H55V11H66V5.5Z" fill="#AD651D" style="fill:#AD651D;fill:color(display-p3 0.6784 0.3961 0.1137);fill-opacity:1;"/>
<path d="M33 11H27.5V16.5H33V11Z" fill="#AD651D" style="fill:#AD651D;fill:color(display-p3 0.6784 0.3961 0.1137);fill-opacity:1;"/>
<path d="M66 11H60.5V16.5H66V11Z" fill="#AD651D" style="fill:#AD651D;fill:color(display-p3 0.6784 0.3961 0.1137);fill-opacity:1;"/>
<path d="M33 16.5H27.5V22H33V16.5Z" fill="#AD651D" style="fill:#AD651D;fill:color(display-p3 0.6784 0.3961 0.1137);fill-opacity:1;"/>
<path d="M71.5 16.5H60.5V22H71.5V16.5Z" fill="#AD651D" style="fill:#AD651D;fill:color(display-p3 0.6784 0.3961 0.1137);fill-opacity:1;"/>
<path d="M33 22H16.5V27.5H33V22Z" fill="#AD651D" style="fill:#AD651D;fill:color(display-p3 0.6784 0.3961 0.1137);fill-opacity:1;"/>
<path d="M71.5 22H66V27.5H71.5V22Z" fill="#AD651D" style="fill:#AD651D;fill:color(display-p3 0.6784 0.3961 0.1137);fill-opacity:1;"/>
<path d="M22 27.5H5.5V33H22V27.5Z" fill="#AD651D" style="fill:#AD651D;fill:color(display-p3 0.6784 0.3961 0.1137);fill-opacity:1;"/>
<path d="M88 27.5H27.5V33H88V27.5Z" fill="#AD651D" style="fill:#AD651D;fill:color(display-p3 0.6784 0.3961 0.1137);fill-opacity:1;"/>
<path d="M11 33H0V38.5H11V33Z" fill="#AD651D" style="fill:#AD651D;fill:color(display-p3 0.6784 0.3961 0.1137);fill-opacity:1;"/>
<path d="M16.5 66H0V71.5H16.5V66Z" fill="#AD651D" style="fill:#AD651D;fill:color(display-p3 0.6784 0.3961 0.1137);fill-opacity:1;"/>
<path d="M16.5 71.5H11V88H16.5V71.5Z" fill="#AD651D" style="fill:#AD651D;fill:color(display-p3 0.6784 0.3961 0.1137);fill-opacity:1;"/>
<path d="M88 33H82.5V38.5H88V33Z" fill="#AD651D" style="fill:#AD651D;fill:color(display-p3 0.6784 0.3961 0.1137);fill-opacity:1;"/>
<path d="M5.5 38.5H0V44H5.5V38.5Z" fill="#AD651D" style="fill:#AD651D;fill:color(display-p3 0.6784 0.3961 0.1137);fill-opacity:1;"/>
<path d="M93.5 38.5H82.5V44H93.5V38.5Z" fill="#AD651D" style="fill:#AD651D;fill:color(display-p3 0.6784 0.3961 0.1137);fill-opacity:1;"/>
<path d="M5.5 44H0V49.5H5.5V44Z" fill="#AD651D" style="fill:#AD651D;fill:color(display-p3 0.6784 0.3961 0.1137);fill-opacity:1;"/>
<path d="M33 44H27.5V49.5H33V44Z" fill="white" style="fill:white;fill-opacity:1;"/>
<path d="M77 44H71.5V49.5H77V44Z" fill="white" style="fill:white;fill-opacity:1;"/>
<path d="M93.5 44H88V49.5H93.5V44Z" fill="#AD651D" style="fill:#AD651D;fill:color(display-p3 0.6784 0.3961 0.1137);fill-opacity:1;"/>
<path d="M5.5 49.5H0V69.1182H5.5V49.5Z" fill="#AD651D" style="fill:#AD651D;fill:color(display-p3 0.6784 0.3961 0.1137);fill-opacity:1;"/>
<path d="M27.5 49.5H22V55H27.5V49.5Z" fill="white" style="fill:white;fill-opacity:1;"/>
<path d="M82.5 49.5H77V55H82.5V49.5Z" fill="white" style="fill:white;fill-opacity:1;"/>
<path d="M93.5 49.5H88V55H93.5V49.5Z" fill="#AD651D" style="fill:#AD651D;fill:color(display-p3 0.6784 0.3961 0.1137);fill-opacity:1;"/>
<path d="M27.5 55H22V60.5H27.5V55Z" fill="white" style="fill:white;fill-opacity:1;"/>
<path d="M44 55H38.5V60.5H44V55Z" fill="#AD651D" style="fill:#AD651D;fill:color(display-p3 0.6784 0.3961 0.1137);fill-opacity:1;"/>
<path d="M71.5 55H66V60.5H71.5V55Z" fill="#AD651D" style="fill:#AD651D;fill:color(display-p3 0.6784 0.3961 0.1137);fill-opacity:1;"/>
<path d="M93.5 55H88V60.5H93.5V55Z" fill="#AD651D" style="fill:#AD651D;fill:color(display-p3 0.6784 0.3961 0.1137);fill-opacity:1;"/>
<path d="M22 60.5H16.5V66H22V60.5Z" fill="white" style="fill:white;fill-opacity:1;"/>
<path d="M44 60.5H38.5V66H44V60.5Z" fill="#AD651D" style="fill:#AD651D;fill:color(display-p3 0.6784 0.3961 0.1137);fill-opacity:1;"/>
<path d="M71.5 60.5H66V63.5535H71.5V60.5Z" fill="#AD651D" style="fill:#AD651D;fill:color(display-p3 0.6784 0.3961 0.1137);fill-opacity:1;"/>
<path d="M93.5 60.5H82.5V66H93.5V60.5Z" fill="#AD651D" style="fill:#AD651D;fill:color(display-p3 0.6784 0.3961 0.1137);fill-opacity:1;"/>
<path d="M66 66H49.5V71.5H66V66Z" fill="#AD651D" style="fill:#AD651D;fill:color(display-p3 0.6784 0.3961 0.1137);fill-opacity:1;"/>
<path d="M88 66H82.5V71.5H88V66Z" fill="#AD651D" style="fill:#AD651D;fill:color(display-p3 0.6784 0.3961 0.1137);fill-opacity:1;"/>
<path d="M88 71.5H82.5V77H88V71.5Z" fill="#AD651D" style="fill:#AD651D;fill:color(display-p3 0.6784 0.3961 0.1137);fill-opacity:1;"/>
<path d="M27.5 77H22V82.5H27.5V77Z" fill="white" style="fill:white;fill-opacity:1;"/>
<path d="M88 77H77V82.5H88V77Z" fill="#AD651D" style="fill:#AD651D;fill:color(display-p3 0.6784 0.3961 0.1137);fill-opacity:1;"/>
<path d="M82.5 82.5H66V88H82.5V82.5Z" fill="#AD651D" style="fill:#AD651D;fill:color(display-p3 0.6784 0.3961 0.1137);fill-opacity:1;"/>
<path d="M66 88H11V93.5H66V88Z" fill="#AD651D" style="fill:#AD651D;fill:color(display-p3 0.6784 0.3961 0.1137);fill-opacity:1;"/>
<path d="M55 5.5H38.5V11H55V5.5Z" fill="#F28A2E" style="fill:#F28A2E;fill:color(display-p3 0.9490 0.5412 0.1804);fill-opacity:1;"/>
<path d="M55 11H38.5V16.5H55V11Z" fill="#F28A2E" style="fill:#F28A2E;fill:color(display-p3 0.9490 0.5412 0.1804);fill-opacity:1;"/>
<path d="M66 22H33V27.5H66V22Z" fill="#F28A2E" style="fill:#F28A2E;fill:color(display-p3 0.9490 0.5412 0.1804);fill-opacity:1;"/>
<path d="M71.5 27.5H27.5V33H71.5V27.5Z" fill="#F28A2E" style="fill:#F28A2E;fill:color(display-p3 0.9490 0.5412 0.1804);fill-opacity:1;"/>
<path d="M38.5 11H33V16.5H38.5V11Z" fill="#C76516" style="fill:#C76516;fill:color(display-p3 0.7804 0.3961 0.0863);fill-opacity:1;"/>
<path d="M60.5 11H55V16.5H60.5V11Z" fill="#C76516" style="fill:#C76516;fill:color(display-p3 0.7804 0.3961 0.0863);fill-opacity:1;"/>
<path d="M38.5 33H27.5V38.5H38.5V33Z" fill="#F6C65D" style="fill:#F6C65D;fill:color(display-p3 0.9647 0.7765 0.3647);fill-opacity:1;"/>
<path d="M11 38.5H5.5V44H11V38.5Z" fill="#F6C65D" style="fill:#F6C65D;fill:color(display-p3 0.9647 0.7765 0.3647);fill-opacity:1;"/>
<path d="M22 38.5H16.5V44H22V38.5Z" fill="#F6C65D" style="fill:#F6C65D;fill:color(display-p3 0.9647 0.7765 0.3647);fill-opacity:1;"/>
<path d="M77 38.5H71.5V44H77V38.5Z" fill="#F6C65D" style="fill:#F6C65D;fill:color(display-p3 0.9647 0.7765 0.3647);fill-opacity:1;"/>
<path d="M16.5 49.5H11V55H16.5V49.5Z" fill="#F6C65D" style="fill:#F6C65D;fill:color(display-p3 0.9647 0.7765 0.3647);fill-opacity:1;"/>
<path d="M88 49.5H82.5V55H88V49.5Z" fill="#F6C65D" style="fill:#F6C65D;fill:color(display-p3 0.9647 0.7765 0.3647);fill-opacity:1;"/>
<path d="M88 55H82.5V60.5H88V55Z" fill="#F6C65D" style="fill:#F6C65D;fill:color(display-p3 0.9647 0.7765 0.3647);fill-opacity:1;"/>
<path d="M11 60.5H5.5V66H11V60.5Z" fill="#F6C65D" style="fill:#F6C65D;fill:color(display-p3 0.9647 0.7765 0.3647);fill-opacity:1;"/>
<path d="M60.5 16.5H33V22H60.5V16.5Z" fill="#F6C65D" style="fill:#F6C65D;fill:color(display-p3 0.9647 0.7765 0.3647);fill-opacity:1;"/>
<path d="M27.5 27.5H22V33H27.5V27.5Z" fill="#F6C65D" style="fill:#F6C65D;fill:color(display-p3 0.9647 0.7765 0.3647);fill-opacity:1;"/>
<path d="M27.5 33H11V38.5H27.5V33Z" fill="#F6C65D" style="fill:#F6C65D;fill:color(display-p3 0.9647 0.7765 0.3647);fill-opacity:1;"/>
<path d="M82.5 33H71.5V38.5H82.5V33Z" fill="#F6C65D" style="fill:#F6C65D;fill:color(display-p3 0.9647 0.7765 0.3647);fill-opacity:1;"/>
<path d="M16.5 38.5H11V44H16.5V38.5Z" fill="#F6C65D" style="fill:#F6C65D;fill:color(display-p3 0.9647 0.7765 0.3647);fill-opacity:1;"/>
<path d="M38.5 38.5H22V44H38.5V38.5Z" fill="#F6C65D" style="fill:#F6C65D;fill:color(display-p3 0.9647 0.7765 0.3647);fill-opacity:1;"/>
<path d="M82.5 38.5H77V44H82.5V38.5Z" fill="#F6C65D" style="fill:#F6C65D;fill:color(display-p3 0.9647 0.7765 0.3647);fill-opacity:1;"/>
<path d="M27.5 44H5.5V49.5H27.5V44Z" fill="#F6C65D" style="fill:#F6C65D;fill:color(display-p3 0.9647 0.7765 0.3647);fill-opacity:1;"/>
<path d="M88 44H77V49.5H88V44Z" fill="#F6C65D" style="fill:#F6C65D;fill:color(display-p3 0.9647 0.7765 0.3647);fill-opacity:1;"/>
<path d="M11 49.5H5.5V55H11V49.5Z" fill="#F6C65D" style="fill:#F6C65D;fill:color(display-p3 0.9647 0.7765 0.3647);fill-opacity:1;"/>
<path d="M22 49.5H16.5V55H22V49.5Z" fill="#F6C65D" style="fill:#F6C65D;fill:color(display-p3 0.9647 0.7765 0.3647);fill-opacity:1;"/>
<path d="M22 55H5.5V60.5H22V55Z" fill="#F6C65D" style="fill:#F6C65D;fill:color(display-p3 0.9647 0.7765 0.3647);fill-opacity:1;"/>
<path d="M16.5 60.5H11V66H16.5V60.5Z" fill="#F6C65D" style="fill:#F6C65D;fill:color(display-p3 0.9647 0.7765 0.3647);fill-opacity:1;"/>
<path d="M71.5 33H38.5V38.5H71.5V33Z" fill="white" style="fill:white;fill-opacity:1;"/>
<path d="M71.5 38.5H38.5V44H71.5V38.5Z" fill="white" style="fill:white;fill-opacity:1;"/>
<path d="M71.5 44H33V49.5H71.5V44Z" fill="white" style="fill:white;fill-opacity:1;"/>
<path d="M77 49.5H27.5V55H77V49.5Z" fill="white" style="fill:white;fill-opacity:1;"/>
<path d="M38.5 55H27.5V60.5H38.5V55Z" fill="white" style="fill:white;fill-opacity:1;"/>
<path d="M66 55H44V60.5H66V55Z" fill="white" style="fill:white;fill-opacity:1;"/>
<path d="M82.5 55H77V60.5H82.5V55Z" fill="white" style="fill:white;fill-opacity:1;"/>
<path d="M38.5 60.5H22V66H38.5V60.5Z" fill="white" style="fill:white;fill-opacity:1;"/>
<path d="M66 60.5H44V66H66V60.5Z" fill="white" style="fill:white;fill-opacity:1;"/>
<path d="M82.5 60.5H77V66H82.5V60.5Z" fill="white" style="fill:white;fill-opacity:1;"/>
<path d="M49.5 66H16.5V71.5H49.5V66Z" fill="white" style="fill:white;fill-opacity:1;"/>
<path d="M82.5 63.5535H66V71.5H82.5V63.5535Z" fill="white" style="fill:white;fill-opacity:1;"/>
<path d="M82.5 71.5H16.5V77H82.5V71.5Z" fill="white" style="fill:white;fill-opacity:1;"/>
<path d="M22 77H16.5V82.5H22V77Z" fill="white" style="fill:white;fill-opacity:1;"/>
<path d="M77 77H27.5V82.5H77V77Z" fill="white" style="fill:white;fill-opacity:1;"/>
<path d="M66 82.5H16.5V88H66V82.5Z" fill="white" style="fill:white;fill-opacity:1;"/>
<path d="M77 55H71.5V66H77V55Z" fill="white" style="fill:white;fill-opacity:1;"/>
</svg>
