<svg width="155" height="155" viewBox="0 0 155 155" fill="none" xmlns="http://www.w3.org/2000/svg" shape-rendering="crispEdges">
<g transform="translate(25 30)"><path d="M50 0H30V5H50V0Z" fill="#AD651D" style="fill:#AD651D;fill-opacity:1;" data-role="outline" />
<path d="M90 0H70V5H90V0Z" fill="#AD651D" style="fill:#AD651D;fill-opacity:1;" data-role="outline" />
<path d="M35 5H30V10H35V5Z" fill="#AD651D" style="fill:#AD651D;fill-opacity:1;" data-role="outline" />
<path d="M55 5H45V10H55V5Z" fill="#AD651D" style="fill:#AD651D;fill-opacity:1;" data-role="outline" />
<path d="M75 5H65V10H75V5Z" fill="#AD651D" style="fill:#AD651D;fill-opacity:1;" data-role="outline" />
<path d="M90 5H85V10H90V5Z" fill="#AD651D" style="fill:#AD651D;fill-opacity:1;" data-role="outline" />
<path d="M35 9.99988H30V14.9999H35V9.99988Z" fill="#AD651D" style="fill:#AD651D;fill-opacity:1;" data-role="outline" />
<path d="M70 9.99988H50V14.9999H70V9.99988Z" fill="#AD651D" style="fill:#AD651D;fill-opacity:1;" data-role="outline" />
<path d="M90 9.99988H85V14.9999H90V9.99988Z" fill="#AD651D" style="fill:#AD651D;fill-opacity:1;" data-role="outline" />
<path d="M35 15H30V20H35V15Z" fill="#AD651D" style="fill:#AD651D;fill-opacity:1;" data-role="outline" />
<path d="M90 15H85V20H90V15Z" fill="#AD651D" style="fill:#AD651D;fill-opacity:1;" data-role="outline" />
<path d="M35 20H25V25H35V20Z" fill="#AD651D" style="fill:#AD651D;fill-opacity:1;" data-role="outline" />
<path d="M95 20H85V25H95V20Z" fill="#AD651D" style="fill:#AD651D;fill-opacity:1;" data-role="outline" />
<path d="M30 25H25V30H30V25Z" fill="#AD651D" style="fill:#AD651D;fill-opacity:1;" data-role="outline" />
<path d="M95 25H90V30H95V25Z" fill="#AD651D" style="fill:#AD651D;fill-opacity:1;" data-role="outline" />
<path d="M30 29.9999H25V34.9999H30V29.9999Z" fill="#AD651D" style="fill:#AD651D;fill-opacity:1;" data-role="outline" />
<path d="M95 29.9999H90V34.9999H95V29.9999Z" fill="#AD651D" style="fill:#AD651D;fill-opacity:1;" data-role="outline" />
<path d="M25 35H20V40H25V35Z" fill="#AD651D" style="fill:#AD651D;fill-opacity:1;" data-role="outline" />
<path d="M30 40H25V45H30V40Z" fill="#AD651D" style="fill:#AD651D;fill-opacity:1;" data-role="outline" />
<path d="M25 44.9838H20V49.9838H25V44.9838Z" fill="#AD651D" style="fill:#AD651D;fill-opacity:1;" data-role="outline" />
<path d="M100 35H95V40H100V35Z" fill="#AD651D" style="fill:#AD651D;fill-opacity:1;" data-role="outline" />
<path d="M95 40H90V45H95V40Z" fill="#AD651D" style="fill:#AD651D;fill-opacity:1;" data-role="outline" />
<path d="M5 44.9999H0V49.9999H5V44.9999Z" fill="#AD651D" style="fill:#AD651D;fill-opacity:1;" data-role="outline" />
<path d="M100 44.9999H95V49.9999H100V44.9999Z" fill="#AD651D" style="fill:#AD651D;fill-opacity:1;" data-role="outline" />
<path d="M5 50H0V55H5V50Z" fill="#AD651D" style="fill:#AD651D;fill-opacity:1;" data-role="outline" />
<path d="M30 50H25V55H30V50Z" fill="#AD651D" style="fill:#AD651D;fill-opacity:1;" data-role="outline" />
<path d="M95 50H90V55H95V50Z" fill="#AD651D" style="fill:#AD651D;fill-opacity:1;" data-role="outline" />
<path d="M5 55H0V60H5V55Z" fill="#AD651D" style="fill:#AD651D;fill-opacity:1;" data-role="outline" />
<path d="M35 55H15V60H35V55Z" fill="#AD651D" style="fill:#AD651D;fill-opacity:1;" data-role="outline" />
<path d="M95 55H90V60H95V55Z" fill="#AD651D" style="fill:#AD651D;fill-opacity:1;" data-role="outline" />
<path d="M10 60H0V65H10V60Z" fill="#AD651D" style="fill:#AD651D;fill-opacity:1;" data-role="outline" />
<path d="M20 60H15V65H20V60Z" fill="#231406" style="fill:#231406;fill-opacity:1;" />
<path d="M90 60H80V65H90V60Z" fill="#AD651D" style="fill:#AD651D;fill-opacity:1;" data-role="outline" />
<path d="M15 65H5V70H15V65Z" fill="#AD651D" style="fill:#AD651D;fill-opacity:1;" data-role="outline" />
<path d="M80 65H75V70H80V65Z" fill="#AD651D" style="fill:#AD651D;fill-opacity:1;" data-role="outline" />
<path d="M15 70H10V75H15V70Z" fill="#AD651D" style="fill:#AD651D;fill-opacity:1;" data-role="outline" />
<path d="M80 70H75V75H80V70Z" fill="#AD651D" style="fill:#AD651D;fill-opacity:1;" data-role="outline" />
<path d="M15 75H10V80H15V75Z" fill="#AD651D" style="fill:#AD651D;fill-opacity:1;" data-role="outline" />
<path d="M80 75H75V80H80V75Z" fill="#AD651D" style="fill:#AD651D;fill-opacity:1;" data-role="outline" />
<path d="M15 79.9999H10V84.9999H15V79.9999Z" fill="#AD651D" style="fill:#AD651D;fill-opacity:1;" data-role="outline" />
<path d="M80 79.9999H75V84.9999H80V79.9999Z" fill="#AD651D" style="fill:#AD651D;fill-opacity:1;" data-role="outline" />
<path d="M15 85H10V90H15V85Z" fill="#AD651D" style="fill:#AD651D;fill-opacity:1;" data-role="outline" />
<path d="M40 85H25V90H40V85Z" fill="#AD651D" style="fill:#AD651D;fill-opacity:1;" data-role="outline" />
<path d="M65 85H50V90H65V85Z" fill="#AD651D" style="fill:#AD651D;fill-opacity:1;" data-role="outline" />
<path d="M80 85H75V90H80V85Z" fill="#AD651D" style="fill:#AD651D;fill-opacity:1;" data-role="outline" />
<path d="M30 90H10V95H30V90Z" fill="#AD651D" style="fill:#AD651D;fill-opacity:1;" data-role="outline" />
<path d="M55 90H35V95H55V90Z" fill="#AD651D" style="fill:#AD651D;fill-opacity:1;" data-role="outline" />
<path d="M80 90H60V95H80V90Z" fill="#AD651D" style="fill:#AD651D;fill-opacity:1;" data-role="outline" />
<path d="M5 40H0V45H5V40Z" fill="#AD651D" style="fill:#AD651D;fill-opacity:1;" data-role="outline" />
<path d="M15 34.9836H0V39.9836H15V34.9836Z" fill="#AD651D" style="fill:#AD651D;fill-opacity:1;" data-role="outline" />
<path d="M15 40.0001H10V54.9837H15V40.0001Z" fill="#AD651D" style="fill:#AD651D;fill-opacity:1;" data-role="outline" />
<path d="M45 5H35V15H45V5Z" fill="#231406" style="fill:#231406;fill-opacity:1;" />
<path d="M85 5H75V31.1326H85V5Z" fill="#C76516" style="fill:#C76516;fill-opacity:1;" />
<path d="M40 10H35V15H40V10Z" fill="#FFFFFF" style="fill:#FFFFFF;fill-opacity:1;" />
<path d="M50 10H45V15H50V10Z" fill="#FFFFFF" style="fill:#FFFFFF;fill-opacity:1;" />
<path d="M75 10H70V15H75V10Z" fill="#C76516" style="fill:#C76516;fill-opacity:1;" />
<path d="M85 10H80V15H85V10Z" fill="#C76516" style="fill:#C76516;fill-opacity:1;" />
<path d="M50 15H35V20H50V15Z" fill="#231406" style="fill:#231406;fill-opacity:1;" />
<path d="M60 15H55V20H60V15Z" fill="#C76516" style="fill:#C76516;fill-opacity:1;" />
<path d="M70 15H65V20H70V15Z" fill="#C76516" style="fill:#C76516;fill-opacity:1;" />
<path d="M85 15H80V20H85V15Z" fill="#C76516" style="fill:#C76516;fill-opacity:1;" />
<path d="M50 20H35V25H50V20Z" fill="#231406" style="fill:#231406;fill-opacity:1;" />
<path d="M60 20H55V25H60V20Z" fill="#FFFFFF" style="fill:#FFFFFF;fill-opacity:1;" />
<path d="M75 20H65V25H75V20Z" fill="#C76516" style="fill:#C76516;fill-opacity:1;" />
<path d="M85 20H80V25H85V20Z" fill="#C76516" style="fill:#C76516;fill-opacity:1;" />
<path d="M50 25H30V30H50V25Z" fill="#F28A2E" style="fill:#F28A2E;fill-opacity:1;" />
<path d="M60 25H55V30H60V25Z" fill="#F28A2E" style="fill:#F28A2E;fill-opacity:1;" />
<path d="M75 25H65V30H75V25Z" fill="#C76516" style="fill:#C76516;fill-opacity:1;" />
<path d="M90 25H80V30H90V25Z" fill="#C76516" style="fill:#C76516;fill-opacity:1;" />
<path d="M90 30H30V35H90V30Z" fill="#FFEBBE" style="fill:#FFEBBE;fill-opacity:1;" />
<path d="M95 35H25V40H95V35Z" fill="#FFEBBE" style="fill:#FFEBBE;fill-opacity:1;" />
<path d="M55 40H40V45H55V40Z" fill="#231406" style="fill:#231406;fill-opacity:1;" />
<path d="M80 40H55V45H80V40Z" fill="#C76516" style="fill:#C76516;fill-opacity:1;" />
<path d="M90 40H80V45H90V40Z" fill="#C76516" style="fill:#C76516;fill-opacity:1;" />
<path d="M10 45H5V50H10V45Z" fill="#231406" style="fill:#231406;fill-opacity:1;" />
<path d="M10 39.9836H5V44.9836H10V39.9836Z" fill="#231406" style="fill:#231406;fill-opacity:1;" />
<path d="M55 45H25V50H55V45Z" fill="#FFEBBE" style="fill:#FFEBBE;fill-opacity:1;" />
<path d="M95 45H80V50H95V45Z" fill="#FFFFFF" style="fill:#FFFFFF;fill-opacity:1;" />
<path d="M50 50H40V55H50V50Z" fill="#FFFFFF" style="fill:#FFFFFF;fill-opacity:1;" />
<path d="M15 55H5V60H15V55Z" fill="#C76516" style="fill:#C76516;fill-opacity:1;" />
<path d="M45 55H35V60H45V55Z" fill="#FFFFFF" style="fill:#FFFFFF;fill-opacity:1;" />
<path d="M15 60H10V65H15V60Z" fill="#C76516" style="fill:#C76516;fill-opacity:1;" />
<path d="M35 60H30V65H35V60Z" fill="#FFFFFF" style="fill:#FFFFFF;fill-opacity:1;" />
<path d="M75 60H40V65H75V60Z" fill="#231406" style="fill:#231406;fill-opacity:1;" />
<path d="M20 65.0001H15V70.0001H20V65.0001Z" fill="#FFFFFF" style="fill:#FFFFFF;fill-opacity:1;" />
<path d="M35 65.0001H30V70.0001H35V65.0001Z" fill="#FFFFFF" style="fill:#FFFFFF;fill-opacity:1;" />
<path d="M45 70H15V75H45V70Z" fill="#FFFFFF" style="fill:#FFFFFF;fill-opacity:1;" />
<path d="M50 75H15V80H50V75Z" fill="#FFFFFF" style="fill:#FFFFFF;fill-opacity:1;" />
<path d="M75 75H70V80H75V75Z" fill="#FFFFFF" style="fill:#FFFFFF;fill-opacity:1;" />
<path d="M50 80.0001H15V85.0001H50V80.0001Z" fill="#FFFFFF" style="fill:#FFFFFF;fill-opacity:1;" />
<path d="M75 80.0001H70V85.0001H75V80.0001Z" fill="#FFFFFF" style="fill:#FFFFFF;fill-opacity:1;" />
<path d="M25 85H15V90H25V85Z" fill="#FFFFFF" style="fill:#FFFFFF;fill-opacity:1;" />
<path d="M50 85H40V90H50V85Z" fill="#FFFFFF" style="fill:#FFFFFF;fill-opacity:1;" />
<path d="M75 85H65V90H75V85Z" fill="#FFFFFF" style="fill:#FFFFFF;fill-opacity:1;" />
<path d="M40 5H35V19.9999H40V5Z" fill="#FFEBBE" style="fill:#FFEBBE;fill-opacity:1;" />
<path d="M85 5H80V19.9999H85V5Z" fill="#FFEBBE" style="fill:#FFEBBE;fill-opacity:1;" />
<path d="M55 15H50V20H55V15Z" fill="#FFFFFF" style="fill:#FFFFFF;fill-opacity:1;" />
<path d="M65 15H60V20H65V15Z" fill="#FFFFFF" style="fill:#FFFFFF;fill-opacity:1;" />
<path d="M75 15H70V20H75V15Z" fill="#FFFFFF" style="fill:#FFFFFF;fill-opacity:1;" />
<path d="M55 20H50V25H55V20Z" fill="#FFFFFF" style="fill:#FFFFFF;fill-opacity:1;" />
<path d="M65 20H60V25H65V20Z" fill="#FFFFFF" style="fill:#FFFFFF;fill-opacity:1;" />
<path d="M75 20H70V25H75V20Z" fill="#FFFFFF" style="fill:#FFFFFF;fill-opacity:1;" />
<path d="M55 25H50V30H55V25Z" fill="#FFFFFF" style="fill:#FFFFFF;fill-opacity:1;" />
<path d="M65 25H60V30H65V25Z" fill="#FFFFFF" style="fill:#FFFFFF;fill-opacity:1;" />
<path d="M75 25H70V30H75V25Z" fill="#FFFFFF" style="fill:#FFFFFF;fill-opacity:1;" />
<path d="M40 40H30V45H40V40Z" fill="#FFEBBE" style="fill:#FFEBBE;fill-opacity:1;" />
<path d="M90 40H85V45H90V40Z" fill="#FFEBBE" style="fill:#FFEBBE;fill-opacity:1;" />
<path d="M10 50H5V55H10V50Z" fill="#FFFFFF" style="fill:#FFFFFF;fill-opacity:1;" />
<path d="M40 50H30V55H40V50Z" fill="#FFEBBE" style="fill:#FFEBBE;fill-opacity:1;" />
<path d="M30 60H20V65H30V60Z" fill="#C76516" style="fill:#C76516;fill-opacity:1;" />
<path d="M30 65.0001H20V70.0001H30V65.0001Z" fill="#C76516" style="fill:#C76516;fill-opacity:1;" />
<path d="M40 65.0001H35V70.0001H40V65.0001Z" fill="#C76516" style="fill:#C76516;fill-opacity:1;" />
<path d="M55 79.9999H50V84.9999H55V79.9999Z" fill="#C76516" style="fill:#C76516;fill-opacity:1;" />
<path d="M70 79.9999H65V84.9999H70V79.9999Z" fill="#C76516" style="fill:#C76516;fill-opacity:1;" />
<path d="M65 44.9999H55V49.9999H65V44.9999Z" fill="#C76516" style="fill:#C76516;fill-opacity:1;" />
<path d="M80 44.9999H70V49.9999H80V44.9999Z" fill="#C76516" style="fill:#C76516;fill-opacity:1;" />
<path d="M90 50H50V55H90V50Z" fill="#231406" style="fill:#231406;fill-opacity:1;" />
<path d="M90 55H45V60H90V55Z" fill="#231406" style="fill:#231406;fill-opacity:1;" />
<path d="M40 60H35V65H40V60Z" fill="#C76516" style="fill:#C76516;fill-opacity:1;" />
<path d="M75 65.0001H40V70.0001H75V65.0001Z" fill="#231406" style="fill:#231406;fill-opacity:1;" />
<path d="M75 70H45V75H75V70Z" fill="#231406" style="fill:#231406;fill-opacity:1;" />
<path d="M70 75H50V80H70V75Z" fill="#231406" style="fill:#231406;fill-opacity:1;" />
<path d="M65 79.9999H55V84.9999H65V79.9999Z" fill="#231406" style="fill:#231406;fill-opacity:1;" />
<path d="M80 60H75V65H80V60Z" fill="#AD651D" style="fill:#AD651D;fill-opacity:1;" data-role="outline" />
<path d="M80 40H75V44.9837H80V40Z" fill="#B6B644" style="fill:#B6B644;fill-opacity:1;" data-role="eye" />
<path d="M55 40H50V44.9837H55V40Z" fill="#B6B644" style="fill:#B6B644;fill-opacity:1;" data-role="eye" />
<path d="M65 44.9838H55V49.9838H65V44.9838Z" fill="#FFEBBE" style="fill:#FFEBBE;fill-opacity:1;" />
<path d="M80 44.9838H70V49.9838H80V44.9838Z" fill="#FFEBBE" style="fill:#FFEBBE;fill-opacity:1;" />
<path d="M90 49.9838H50V54.9838H90V49.9838Z" fill="#FFEBBE" style="fill:#FFEBBE;fill-opacity:1;" />
<path d="M90 54.9838H45V59.9838H90V54.9838Z" fill="#FFEBBE" style="fill:#FFEBBE;fill-opacity:1;" />
<path d="M65 49.9838H60V54.9838H65V49.9838Z" fill="#683D11" style="fill:#683D11;fill-opacity:1;" data-role="nose-mouth" />
<path d="M75 49.9838H70V54.9838H75V49.9838Z" fill="#683D11" style="fill:#683D11;fill-opacity:1;" data-role="nose-mouth" />
<path d="M70 44.9838H65V49.9838H70V44.9838Z" fill="#683D11" style="fill:#683D11;fill-opacity:1;" data-role="nose-mouth" />
<path d="M90 49.9836H85V54.9836H90V49.9836Z" fill="#FFEBBE" style="fill:#FFEBBE;fill-opacity:1;" />
<path d="M65 15H55V20H65V15Z" fill="#AD651D" style="fill:#AD651D;fill-opacity:1;" data-role="outline" />
<path d="M90 54.9838H85V59.9838H90V54.9838Z" fill="#AD651D" style="fill:#AD651D;fill-opacity:1;" data-role="outline" />
</g>
</svg>
