<svg width="30" height="30" viewBox="0 0 30 30" fill="none" xmlns="http://www.w3.org/2000/svg">
<g id="nav icon">
<g id="nav icon/ search">
<g id="status=hover/press">
<g id="Group 123">
<g id="Group 104">
<path id="Union" d="M16.636 10.909H19.0911V15.8182H16.636V18.2733H10.0911V15.8182H8.2063V10.909H10.0911V8.4549H16.636V10.909Z" fill="#FFFE72" style="fill:#FFFE72;fill:color(display-p3 1.0000 0.9961 0.4471);fill-opacity:1;"/>
<rect id="Rectangle" x="10.091" y="8.45453" width="2.45467" height="2.45468" fill="white" style="fill:white;fill-opacity:1;"/>
<g id="Group 73">
<g id="Group">
<path id="Vector" d="M16.6363 6H10.0909V8.45455H16.6363V6Z" fill="#AD651D" style="fill:#AD651D;fill:color(display-p3 0.6784 0.3961 0.1137);fill-opacity:1;"/>
<path id="Vector_2" d="M10.091 8.45465H7.63644V10.9092H10.091V8.45465Z" fill="#AD651D" style="fill:#AD651D;fill:color(display-p3 0.6784 0.3961 0.1137);fill-opacity:1;"/>
<path id="Vector_3" d="M19.091 8.45465H16.6364V10.9092H19.091V8.45465Z" fill="#AD651D" style="fill:#AD651D;fill:color(display-p3 0.6784 0.3961 0.1137);fill-opacity:1;"/>
<path id="Vector_4" d="M8.45455 10.9093H6V15.8184H8.45455V10.9093Z" fill="#AD651D" style="fill:#AD651D;fill:color(display-p3 0.6784 0.3961 0.1137);fill-opacity:1;"/>
<path id="Vector_5" d="M20.7273 10.9093H18.2728V15.8184H20.7273V10.9093Z" fill="#AD651D" style="fill:#AD651D;fill:color(display-p3 0.6784 0.3961 0.1137);fill-opacity:1;"/>
<path id="Vector_6" d="M10.091 15.8185H7.63644V18.2731H10.091V15.8185Z" fill="#AD651D" style="fill:#AD651D;fill:color(display-p3 0.6784 0.3961 0.1137);fill-opacity:1;"/>
<path id="Vector_7" d="M19.0908 15.8185H15.8181V19.0913H19.0908V15.8185Z" fill="#AD651D" style="fill:#AD651D;fill:color(display-p3 0.6784 0.3961 0.1137);fill-opacity:1;"/>
<path id="Vector_8" d="M16.6363 18.2727H10.0909V20.7273H16.6363V18.2727Z" fill="#AD651D" style="fill:#AD651D;fill:color(display-p3 0.6784 0.3961 0.1137);fill-opacity:1;"/>
<path id="Vector_9" d="M21.5455 18.2727H18.2728V21.5454H21.5455V18.2727Z" fill="#AD651D" style="fill:#AD651D;fill:color(display-p3 0.6784 0.3961 0.1137);fill-opacity:1;"/>
<path id="Vector_10" d="M24 20.7274H20.7273V24.0001H24V20.7274Z" fill="#AD651D" style="fill:#AD651D;fill:color(display-p3 0.6784 0.3961 0.1137);fill-opacity:1;"/>
</g>
</g>
</g>
</g>
</g>
</g>
</g>
</svg>
