<svg width="20" height="20" viewBox="0 0 20 20" fill="none" xmlns="http://www.w3.org/2000/svg">
<mask id="mask0_396_3486" style="mask-type:alpha" maskUnits="userSpaceOnUse" x="0" y="0" width="20" height="20">
<rect width="20" height="20" fill="#D9D9D9" style="fill:#D9D9D9;fill:color(display-p3 0.8510 0.8510 0.8510);fill-opacity:1;"/>
</mask>
<g mask="url(#mask0_396_3486)">
<path d="M5.09851 18.5764C4.64925 18.5764 4.26466 18.4164 3.94473 18.0965C3.62481 17.7765 3.46484 17.3919 3.46484 16.9427V8.77435C3.46484 8.32509 3.62481 7.9405 3.94473 7.62058C4.26466 7.30065 4.64925 7.14069 5.09851 7.14069H5.91534V5.50702C5.91534 4.37707 6.31355 3.41388 7.10996 2.61747C7.90638 1.82106 8.86956 1.42285 9.99951 1.42285C11.1295 1.42285 12.0926 1.82106 12.8891 2.61747C13.6855 3.41388 14.0837 4.37707 14.0837 5.50702V7.14069H14.9005C15.3498 7.14069 15.7344 7.30065 16.0543 7.62058C16.3742 7.9405 16.5342 8.32509 16.5342 8.77435V16.9427C16.5342 17.3919 16.3742 17.7765 16.0543 18.0965C15.7344 18.4164 15.3498 18.5764 14.9005 18.5764H5.09851ZM5.09851 16.9427H14.9005V8.77435H5.09851V16.9427ZM7.54901 7.14069H12.45V5.50702C12.45 4.82632 12.2118 4.24773 11.7353 3.77125C11.2588 3.29476 10.6802 3.05652 9.99951 3.05652C9.31882 3.05652 8.74023 3.29476 8.26374 3.77125C7.78725 4.24773 7.54901 4.82632 7.54901 5.50702V7.14069Z" fill="#5D5D5D" style="fill:#5D5D5D;fill:color(display-p3 0.3647 0.3647 0.3647);fill-opacity:1;"/>
</g>
</svg>
